<svg xmlns="http://www.w3.org/2000/svg" version="1.1" xmlns:xlink="http://www.w3.org/1999/xlink" xmlns:svgjs="http://svgjs.dev/svgjs" width="1000" height="204" viewBox="0 0 1000 204"><g transform="matrix(1,0,0,1,-0.6060606060606233,0.5000740666058903)"><svg viewBox="0 0 396 81" data-background-color="#ffffff" preserveAspectRatio="xMidYMid meet" height="204" width="1000" xmlns="http://www.w3.org/2000/svg" xmlns:xlink="http://www.w3.org/1999/xlink"><g id="tight-bounds" transform="matrix(1,0,0,1,0.2400000000000091,-0.19855882056410223)"><svg viewBox="0 0 395.52 81.39711764112819" height="81.39711764112819" width="395.52"><g><svg viewBox="0 0 522.4266048756646 107.51420867698135" height="81.39711764112819" width="395.52"><g transform="matrix(1,0,0,1,126.90660487566458,12.689797739185344)"><svg viewBox="0 0 395.52 82.13461319861067" height="82.13461319861067" width="395.52"><g><svg viewBox="0 0 395.52 82.13461319861067" height="82.13461319861067" width="395.52"><g><svg viewBox="0 0 395.52 82.13461319861067" height="82.13461319861067" width="395.52"><g transform="matrix(1,0,0,1,0,0)"><svg width="395.52" viewBox="1.1 -37.5 231.93 48.17" height="82.13461319861067" data-palette-color="#009dff"><path d="M4.15-35.55L13.43-4.44 13.5-4.05 13.6-4.44 22.88-35.55 25.95-35.55 14.84 0 12.21 0 1.1-35.55 4.15-35.55ZM38.28 0.49L38.28 0.49Q33.62 0.49 30.98-2.56 28.34-5.62 28.29-11.25L28.29-11.25 28.29-14.48Q28.29-20.29 30.83-23.6 33.37-26.9 37.81-26.9L37.81-26.9Q42.11-26.9 44.37-24.1 46.63-21.29 46.68-15.5L46.68-15.5 46.68-12.96 30.98-12.96 30.98-11.47Q30.98-6.93 32.92-4.47 34.86-2 38.4-2L38.4-2Q42.31-2 44.72-4.86L44.72-4.86 46.14-3.05Q43.55 0.49 38.28 0.49ZM37.81-24.37L37.81-24.37Q34.62-24.37 32.9-22.11 31.17-19.85 31-15.5L31-15.5 43.97-15.5 43.97-16.21Q43.77-24.37 37.81-24.37ZM55.46-37.5L55.46 0 52.73 0 52.73-37.5 55.46-37.5ZM61.93-11.43L61.93-14.55Q61.93-20.26 64.52-23.58 67.11-26.9 71.57-26.9L71.57-26.9Q76.07-26.9 78.64-23.63 81.22-20.36 81.24-14.62L81.24-14.62 81.24-11.82Q81.24-6.01 78.64-2.76 76.04 0.49 71.62 0.49 67.2 0.49 64.62-2.69 62.03-5.86 61.93-11.43L61.93-11.43ZM64.67-14.75L64.67-11.82Q64.67-7.25 66.51-4.64 68.35-2.03 71.62-2.03L71.62-2.03Q74.97-2.03 76.74-4.54 78.51-7.06 78.53-11.74L78.53-11.74 78.53-14.55Q78.53-19.12 76.68-21.74 74.82-24.37 71.57-24.37L71.57-24.37Q68.43-24.37 66.57-21.8 64.71-19.24 64.67-14.75L64.67-14.75ZM95.84-2.03L95.84-2.03Q98.67-2.03 100.19-3.61 101.7-5.2 101.82-8.18L101.82-8.18 104.43-8.18Q104.24-4.13 101.85-1.82 99.45 0.49 95.84 0.49L95.84 0.49Q91.13 0.49 88.72-2.53 86.32-5.54 86.27-11.47L86.27-11.47 86.27-14.7Q86.27-20.75 88.67-23.83 91.08-26.9 95.82-26.9L95.82-26.9Q99.75-26.9 102.02-24.43 104.29-21.95 104.43-17.5L104.43-17.5 101.82-17.5Q101.7-20.78 100.16-22.57 98.62-24.37 95.82-24.37L95.82-24.37Q92.3-24.37 90.65-22 89-19.63 89-14.72L89-14.72 89-11.72Q89-6.64 90.66-4.33 92.32-2.03 95.84-2.03ZM113.2-26.42L113.2 0 110.46 0 110.46-26.42 113.2-26.42ZM110.07-34.03L110.07-34.03Q110.07-34.86 110.53-35.45 111-36.04 111.85-36.04 112.71-36.04 113.18-35.45 113.66-34.86 113.66-34.03 113.66-33.2 113.18-32.63 112.71-32.06 111.85-32.06 111-32.06 110.53-32.63 110.07-33.2 110.07-34.03ZM122.06-33.15L124.77-33.15 124.77-26.42 129.28-26.42 129.28-23.97 124.77-23.97 124.77-6.42Q124.77-4.25 125.41-3.19 126.06-2.12 127.57-2.12L127.57-2.12Q128.23-2.12 129.53-2.37L129.53-2.37 129.6 0.07Q128.67 0.49 126.94 0.49L126.94 0.49Q122.18 0.49 122.06-6.05L122.06-6.05 122.06-23.97 117.98-23.97 117.98-26.42 122.06-26.42 122.06-33.15ZM135.65-26.42L142.22-4.47 148.52-26.42 151.42-26.42 142.12 4.22 141.61 5.69Q139.73 10.67 135.85 10.67L135.85 10.67Q134.92 10.67 133.89 10.33L133.89 10.33 133.87 7.84Q134.43 8.01 135.11 8.01L135.11 8.01Q136.87 8.01 138 6.96 139.12 5.91 139.85 3.56L139.85 3.56 140.97-0.17 132.67-26.42 135.65-26.42ZM156.65-35.55L165.92-4.44 166-4.05 166.09-4.44 175.37-35.55 178.45-35.55 167.34 0 164.7 0 153.59-35.55 156.65-35.55ZM194-14.45L186.5-14.45 186.5 0 183.72 0 183.72-35.55 194.04-35.55Q198.76-35.55 201.47-32.71 204.18-29.88 204.18-24.93L204.18-24.93Q204.18-19.87 201.55-17.16 198.93-14.45 194-14.45L194-14.45ZM186.5-32.91L186.5-17.07 194.04-17.07Q197.56-17.07 199.48-19.1 201.39-21.14 201.39-24.88 201.39-28.61 199.45-30.76 197.51-32.91 194.07-32.91L194.07-32.91 186.5-32.91ZM233.03-35.55L233.03 0 230.25 0 213.48-30.27 213.48 0 210.67 0 210.67-35.55 213.48-35.55 230.27-5.22 230.27-35.55 233.03-35.55Z" opacity="1" transform="matrix(1,0,0,1,0,0)" fill="#009dff" class="undefined-text-0" data-fill-palette-color="primary" id="text-0"></path></svg></g></svg></g></svg></g></svg></g><g><svg viewBox="0 0 107.51659393018937 107.51420867698135" height="107.51420867698135" width="107.51659393018937"><g><svg xmlns="http://www.w3.org/2000/svg" xmlns:xlink="http://www.w3.org/1999/xlink" version="1.1" x="0" y="0" viewBox="5.002314457920698 5.002157950222324 89.99556554908038 89.99356899949127" enable-background="new 0 0 100 100" xml:space="preserve" height="107.51420867698135" width="107.51659393018937" class="icon-icon-0" data-fill-palette-color="accent" id="icon-0"><path d="M25.878 50c0 1.296 0.105 2.567 0.302 3.808 3.139-5.576 7.552-11.448 13.216-16.458 5.212-4.61 11.21-8.178 16.895-10.637-2.006-0.541-4.114-0.834-6.291-0.834C36.678 25.878 25.878 36.678 25.878 50z" fill="#009dff" data-fill-palette-color="accent"></path><path d="M50 74.122c13.322 0 24.122-10.8 24.122-24.122 0-8.149-4.045-15.348-10.232-19.715-6.139 1.93-13.915 5.719-20.519 11.559-6.648 5.879-11.669 13.605-14.437 19.904C33.058 69.128 40.944 74.122 50 74.122z" fill="#009dff" data-fill-palette-color="accent"></path><path d="M90.96 31.366C80.686 8.78 53.951-1.235 31.366 9.04S-1.235 46.049 9.04 68.634c3.654 8.031 9.394 14.462 16.284 18.967l-0.097-0.588c-0.068-0.339-0.132-0.693-0.194-1.055 0 0-0.863-5.331-0.939-8.493-0.063-2.653 0.427-7.625 0.447-7.858 0.026-0.29 0.073-0.602 0.122-0.918 0.017-0.109 0.027-0.212 0.047-0.325 0.073-0.415 0.163-0.849 0.272-1.3 0.003-0.015 0.006-0.029 0.01-0.043 0.115-0.475 0.249-0.968 0.401-1.478 0.553-1.849 1.363-3.922 2.403-6.109 0.001 0.003 0.002 0.005 0.003 0.008 1.09-2.295 2.443-4.718 4.03-7.146 0.057-0.088 0.114-0.175 0.172-0.263 1.008-1.525 2.114-3.049 3.306-4.544 0.126-0.158 0.252-0.316 0.38-0.473 0.593-0.729 1.201-1.452 1.836-2.161 0.023-0.026 0.048-0.051 0.071-0.077 0.601-0.67 1.227-1.324 1.865-1.97 0.168-0.17 0.338-0.34 0.508-0.508 0.676-0.666 1.365-1.323 2.079-1.955 0.682-0.603 1.383-1.18 2.092-1.744 0.182-0.145 0.366-0.289 0.55-0.431 0.655-0.508 1.318-1.004 1.989-1.479 0.06-0.042 0.118-0.087 0.177-0.129 0.744-0.522 1.498-1.02 2.255-1.502 0.156-0.099 0.312-0.196 0.468-0.293 0.709-0.442 1.421-0.871 2.134-1.277 0.05-0.029 0.101-0.06 0.151-0.088 0.801-0.453 1.604-0.883 2.403-1.291 0.075-0.038 0.15-0.075 0.226-0.113 0.792-0.4 1.582-0.782 2.365-1.137 0 0 0 0 0.001 0 1.659-0.753 3.286-1.404 4.847-1.952l-0.001-0.001c2.291-0.804 4.444-1.393 6.337-1.744 1.042-0.194 2.01-0.32 2.882-0.376 0.088-0.005 0.167-0.004 0.253-0.008 0.34-0.017 0.674-0.029 0.981-0.023 0.396 0.01 0.769 0.035 1.106 0.082 0.89 0.127 1.523 0.396 1.739 0.739 0.062 0.099 0.103 0.212 0.13 0.333 0.009 0.04 0.01 0.086 0.015 0.129 0.011 0.086 0.017 0.174 0.013 0.269-0.002 0.056-0.009 0.114-0.017 0.173-0.012 0.092-0.029 0.189-0.053 0.288-0.016 0.066-0.031 0.132-0.052 0.201-0.031 0.105-0.072 0.217-0.115 0.329-0.027 0.07-0.049 0.138-0.081 0.211-0.069 0.161-0.149 0.33-0.239 0.504-0.044 0.085-0.094 0.175-0.143 0.263-0.077 0.141-0.156 0.282-0.245 0.43-0.057 0.095-0.121 0.194-0.183 0.291-0.266 0.42-0.565 0.859-0.91 1.325 0.415 0.541 0.811 1.097 1.187 1.667 0.285-0.384 0.547-0.757 0.792-1.121 0.001 0.002 0.002 0.003 0.003 0.005 0.265-0.394 0.498-0.773 0.714-1.143 0.044-0.076 0.081-0.148 0.123-0.224 0.148-0.264 0.286-0.524 0.407-0.775 0.048-0.1 0.089-0.197 0.133-0.295 0.097-0.218 0.185-0.433 0.26-0.64 0.038-0.106 0.072-0.209 0.103-0.312 0.059-0.191 0.107-0.377 0.145-0.559 0.022-0.102 0.043-0.205 0.057-0.304 0.026-0.174 0.036-0.342 0.04-0.506 0.002-0.092 0.009-0.187 0.004-0.276-0.009-0.169-0.039-0.328-0.073-0.486-0.016-0.072-0.022-0.148-0.043-0.218-0.067-0.221-0.157-0.431-0.281-0.626-0.553-0.876-1.612-1.432-3.147-1.651-0.331-0.047-0.699-0.072-1.084-0.087-0.087-0.003-0.173-0.007-0.263-0.009-0.371-0.006-0.763 0.001-1.177 0.023-0.124 0.007-0.253 0.018-0.381 0.027-0.334 0.025-0.679 0.058-1.036 0.1-0.178 0.021-0.355 0.042-0.539 0.067-0.382 0.053-0.776 0.117-1.18 0.19-0.224 0.04-0.449 0.082-0.68 0.128-0.44 0.088-0.887 0.183-1.348 0.292-3.335 0.788-7.217 2.149-11.229 4.086-0.018 0.009-0.037 0.018-0.055 0.027-1.521 0.736-3.059 1.554-4.594 2.458-0.076 0.045-0.151 0.091-0.227 0.136-0.658 0.391-1.314 0.799-1.968 1.221-0.12 0.078-0.24 0.153-0.36 0.232-0.714 0.468-1.424 0.952-2.129 1.458-0.091 0.065-0.181 0.135-0.272 0.201-0.599 0.435-1.193 0.886-1.782 1.349-0.177 0.139-0.353 0.278-0.529 0.419-0.671 0.541-1.337 1.093-1.99 1.67-0.693 0.613-1.362 1.245-2.017 1.885-0.193 0.189-0.381 0.38-0.571 0.57-0.479 0.481-0.948 0.967-1.406 1.46-0.176 0.189-0.353 0.377-0.526 0.568-1.223 1.349-2.367 2.731-3.431 4.13-0.12 0.158-0.235 0.316-0.353 0.474-0.426 0.571-0.839 1.143-1.238 1.717-0.11 0.159-0.222 0.317-0.33 0.476-0.98 1.435-1.877 2.87-2.688 4.287-0.077 0.134-0.149 0.267-0.224 0.401-0.321 0.57-0.628 1.136-0.921 1.698-0.05 0.096-0.108 0.195-0.158 0.291 0.001 0.003 0.002 0.005 0.003 0.008-1.562 3.037-2.722 5.924-3.445 8.423-0.052 0.18-0.101 0.356-0.148 0.532-0.105 0.388-0.201 0.765-0.284 1.132-0.065 0.282-0.124 0.559-0.176 0.828-0.033 0.175-0.067 0.35-0.095 0.519-0.067 0.403-0.118 0.787-0.154 1.154-0.008 0.085-0.013 0.167-0.019 0.25-0.001 0.001-0.001 0.001-0.002 0.002-0.35 2.607-0.505 5.239-0.443 7.861 0.045 1.877 0.208 3.758 0.468 5.625-4.881-4.025-8.95-9.178-11.741-15.313C0.992 46.221 10.572 20.649 32.176 10.82c21.604-9.828 47.175-0.248 57.004 21.355 9.828 21.604 0.248 47.175-21.355 57.004-12.732 5.792-26.84 4.838-38.294-1.34 0.304 0.887 0.608 1.775 0.913 2.662 11.624 5.601 25.556 6.207 38.192 0.459C91.22 80.685 101.235 53.951 90.96 31.366z" fill="#009dff" data-fill-palette-color="accent"></path></svg><g></g></g></svg></g></svg></g><defs></defs></svg><rect width="395.52" height="81.39711764112819" fill="none" stroke="none" visibility="hidden"></rect></g></svg></g></svg>